<?xml version="1.0" standalone="no"?>
<!DOCTYPE svg PUBLIC "-//W3C//DTD SVG 20010904//EN"
 "http://www.w3.org/TR/2001/REC-SVG-20010904/DTD/svg10.dtd">
<svg version="1.0" xmlns="http://www.w3.org/2000/svg"
 width="512.000000pt" height="512.000000pt" viewBox="0 0 512.000000 512.000000"
 preserveAspectRatio="xMidYMid meet">

<g transform="translate(0.000000,512.000000) scale(0.100000,-0.100000)"
fill="#000000" stroke="none">
<path d="M1694 4291 c-47 -22 -80 -59 -94 -110 -8 -25 -10 -508 -8 -1519 l3
-1482 -56 0 c-50 0 -58 3 -65 23 -5 12 -10 541 -11 1175 l-3 1153 -513 -3
c-461 -3 -515 -5 -543 -20 -42 -23 -81 -71 -94 -116 -8 -26 -10 -368 -8 -1125
l3 -1087 -152 0 -153 0 0 -185 0 -185 2560 0 2560 0 0 185 0 185 -140 0 -140
0 0 1102 c0 1098 0 1102 -21 1145 -15 30 -35 52 -67 71 l-47 27 -522 3 -523 3
-3 -1153 c-1 -634 -6 -1163 -11 -1176 -7 -19 -15 -22 -65 -22 l-56 0 3 1482
c2 1011 0 1494 -8 1519 -14 51 -47 88 -94 110 -39 18 -84 19 -866 19 -782 0
-827 -1 -866 -19z m1064 -94 c198 -69 341 -213 406 -407 23 -69 28 -104 29
-185 1 -121 -13 -184 -65 -294 -33 -68 -56 -101 -122 -166 -128 -127 -267
-185 -446 -185 -179 0 -319 58 -445 185 -147 147 -211 326 -186 524 34 265
234 487 493 546 95 22 245 14 336 -18z m-1918 -1257 l0 -131 -127 3 -128 3 -3
128 -3 127 131 0 130 0 0 -130z m408 3 l-3 -128 -127 -3 -128 -3 0 131 0 130
130 0 131 0 -3 -127z m2952 -3 l0 -130 -125 0 -125 0 0 130 0 130 125 0 125 0
0 -130z m408 3 l-3 -128 -127 -3 -128 -3 0 131 0 130 130 0 131 0 -3 -127z
m-3768 -443 l0 -131 -127 3 -128 3 -3 128 -3 127 131 0 130 0 0 -130z m408 3
l-3 -128 -127 -3 -128 -3 0 131 0 130 130 0 131 0 -3 -127z m2952 -3 l0 -130
-125 0 -125 0 0 130 0 130 125 0 125 0 0 -130z m408 3 l-3 -128 -127 -3 -128
-3 0 131 0 130 130 0 131 0 -3 -127z m-3768 -453 l0 -130 -130 0 -130 0 0 130
0 130 130 0 130 0 0 -130z m410 0 l0 -130 -130 0 -130 0 0 130 0 130 130 0
130 0 0 -130z m2950 0 l0 -130 -125 0 -125 0 0 130 0 130 125 0 125 0 0 -130z
m410 0 l0 -130 -130 0 -130 0 0 130 0 130 130 0 130 0 0 -130z m-1650 -385 l0
-475 -380 0 -380 0 0 475 0 475 380 0 380 0 0 -475z"/>
<path d="M2407 3994 c-4 -4 -7 -61 -7 -126 l0 -118 -120 0 -120 0 0 -160 0
-160 120 0 120 0 0 -120 0 -120 160 0 160 0 0 120 0 120 120 0 120 0 0 160 0
160 -120 0 -119 0 -3 123 -3 122 -151 3 c-82 1 -153 -1 -157 -4z"/>
</g>
</svg>
