<?xml version="1.0" standalone="no"?>
<!DOCTYPE svg PUBLIC "-//W3C//DTD SVG 20010904//EN"
 "http://www.w3.org/TR/2001/REC-SVG-20010904/DTD/svg10.dtd">
<svg version="1.0" xmlns="http://www.w3.org/2000/svg"
 width="61.000000pt" height="52.000000pt" viewBox="0 0 61.000000 52.000000"
 preserveAspectRatio="xMidYMid meet">

<g transform="translate(0.000000,52.000000) scale(0.100000,-0.100000)"
fill="#000000" stroke="none">
<path d="M52 448 c-8 -8 -12 -62 -12 -175 0 -149 2 -163 18 -163 28 0 45 16
45 42 0 21 4 23 31 20 17 -1 51 1 76 7 44 9 44 9 -27 10 -40 1 -73 5 -73 10 0
14 136 22 261 15 66 -4 119 -11 119 -16 0 -4 -42 -9 -92 -9 -77 -1 -86 -3 -53
-10 22 -4 64 -8 93 -8 51 -1 52 -2 52 -31 0 -28 3 -30 35 -30 l36 0 -3 113 -3
112 -28 3 c-22 3 -30 -1 -34 -17 -5 -20 -11 -21 -197 -19 -105 1 -161 3 -123
5 37 2 67 8 67 13 0 27 -95 41 -118 18 -9 -9 -12 0 -12 41 0 40 -5 57 -17 67
-22 17 -26 17 -41 2z"/>
</g>
</svg>
