<?xml version="1.0" standalone="no"?>
<!DOCTYPE svg PUBLIC "-//W3C//DTD SVG 20010904//EN"
 "http://www.w3.org/TR/2001/REC-SVG-20010904/DTD/svg10.dtd">
<svg version="1.0" xmlns="http://www.w3.org/2000/svg"
 width="61.000000pt" height="52.000000pt" viewBox="0 0 61.000000 52.000000"
 preserveAspectRatio="xMidYMid meet">

<g transform="translate(0.000000,52.000000) scale(0.100000,-0.100000)"
fill="#000000" stroke="none">
<path d="M47 444 c-4 -4 -7 -81 -7 -171 l0 -164 33 3 c27 2 33 8 35 31 l3 27
190 0 189 0 0 -31 c0 -28 2 -30 33 -27 l32 3 3 106 c2 84 0 109 -12 118 -20
17 -56 4 -56 -20 0 -18 -9 -19 -190 -19 l-189 0 -3 73 c-3 69 -4 72 -28 75
-14 2 -29 0 -33 -4z m443 -244 c0 -6 -70 -10 -190 -10 -120 0 -190 4 -190 10
0 6 70 10 190 10 120 0 190 -4 190 -10z"/>
<path d="M133 343 c-7 -2 -13 -11 -13 -19 0 -10 15 -14 60 -14 60 0 70 6 48
28 -12 12 -71 15 -95 5z"/>
</g>
</svg>
